Coordinates
version=1
nRows=6
nColumns=63
inDegrees=yes

Units are S.I. units (second, meters, Newtons, ...)
If the header above contains a line with 'inDegrees', this indicates whether rotational values are in degrees (yes) or radians (no).

endheader
time	pelvis_tilt	pelvis_list	pelvis_rotation	pelvis_tx	pelvis_ty	pelvis_tz	hip_flexion_r	hip_adduction_r	hip_rotation_r	knee_angle_r	knee_angle_r_beta	ankle_angle_r	subtalar_angle_r	mtp_angle_r	hip_flexion_l	hip_adduction_l	hip_rotation_l	knee_angle_l	knee_angle_l_beta	ankle_angle_l	subtalar_angle_l	mtp_angle_l	L5_S1_Flex_Ext	L5_S1_Lat_Bending	L5_S1_axial_rotation	L4_L5_Flex_Ext	L4_L5_Lat_Bending	L4_L5_axial_rotation	L3_L4_Flex_Ext	L3_L4_Lat_Bending	L3_L4_axial_rotation	L2_L3_Flex_Ext	L2_L3_Lat_Bending	L2_L3_axial_rotation	L1_L2_Flex_Ext	L1_L2_Lat_Bending	L1_L2_axial_rotation	L1_T12_Flex_Ext	L1_T12_Lat_Bending	L1_T12_axial_rotation	Abs_r3	Abs_r2	Abs_r1	Abs_t1	Abs_t2	neck_flexion	neck_bending	neck_rotation	arm_flex_r	arm_add_r	arm_rot_r	elbow_flex_r	pro_sup_r	wrist_flex_r	wrist_dev_r	arm_flex_l	arm_add_l	arm_rot_l	elbow_flex_l	pro_sup_l	wrist_flex_l	wrist_dev_l
      8.11700000	    -58.68364392	     -5.05483225	      5.99824894	     -0.25229466	      1.09224939	     -0.04123503	     93.59080762	    -10.43114154	    -11.38208189	     48.12426669	      0.83992690	     11.55909444	      2.07371604	      0.00000000	    120.01838137	     -2.45556277	      4.08996196	    111.92041814	      1.95337980	     19.95721852	     12.14470811	      0.00000000	     -0.08679790	      0.69427886	     -0.78802782	     -0.16119238	      0.92339089	     -0.83727956	     -0.14260027	      1.68806963	     -0.83727956	     -0.09920132	      1.68806963	     -0.68952434	     -0.08060053	      1.41577346	     -0.64027260	     -0.04959632	      1.07543796	     -0.59102086	     -0.61998870	      7.85382137	     -4.38277432	      0.00000000	      0.00000000	      0.00000000	      0.00000000	      0.00000000	     60.66217823	    -20.12317869	     14.45051702	     52.25012938	     50.86903122	      0.00000000	      5.00000013	     56.99728342	    -14.05869957	      9.12786722	     55.13745979	     50.39692144	      0.00000000	      5.00000013
      8.12500000	    -58.69489732	     -4.81587808	      6.00908258	     -0.25181077	      1.09222780	     -0.04155908	     92.15316858	    -10.40686342	    -11.91775005	     46.77880466	      0.81644416	     10.86834291	      2.57446331	      0.00000000	    121.58629949	     -2.52069995	      3.66232570	    112.82051238	      1.96908940	     18.66836492	     12.34752123	      0.00000000	     -0.08629904	      0.65089757	     -0.78101184	     -0.16026595	      0.86569377	     -0.82982508	     -0.14178070	      1.58259235	     -0.82982508	     -0.09863118	      1.58259235	     -0.68338536	     -0.08013729	      1.32731032	     -0.63457212	     -0.04931127	      1.00824033	     -0.58575888	     -0.61642543	      7.36308348	     -4.34375356	      0.00000000	      0.00000000	      0.00000000	      0.00000000	      0.00000000	     60.38130759	    -19.94204053	     13.79281598	     52.27209577	     50.80170158	      0.00000000	      5.00000013	     57.07238102	    -14.20189159	      9.66932342	     55.10742093	     50.45856292	      0.00000000	      5.00000013
      8.13300000	    -58.75400296	     -4.49790302	      6.12024188	     -0.25150740	      1.09249924	     -0.04212971	     90.88651723	    -10.52444819	    -12.29271175	     45.70588421	      0.79771817	     10.29045676	      3.14801255	      0.00000000	    123.00597813	     -2.53005410	      3.09975705	    113.35107670	      1.97834950	     18.05656480	     12.62909379	      0.00000000	     -0.08672208	      0.60098357	     -0.80145352	     -0.16105158	      0.79930815	     -0.85154436	     -0.14247571	      1.46123146	     -0.85154436	     -0.09911467	      1.46123146	     -0.70127183	     -0.08053013	      1.22552570	     -0.65118098	     -0.04955300	      0.93092356	     -0.60109014	     -0.61944718	      6.79844638	     -4.45744403	      0.00000000	      0.00000000	      0.00000000	      0.00000000	      0.00000000	     60.19650628	    -19.76243008	     13.33645047	     52.33093058	     50.75861393	      0.00000000	      5.00000013	     57.11653003	    -14.37074204	     10.07631743	     55.14194102	     50.51158743	      0.00000000	      5.00000013
      8.14200000	    -58.83533933	     -4.19181785	      6.28162460	     -0.25134436	      1.09296844	     -0.04281218	     89.75950885	    -10.67855403	    -12.48157460	     44.90312492	      0.78370737	      9.78999583	      3.50524702	      0.00000000	    124.32018847	     -2.53204007	      2.44781943	    113.54440491	      1.98172371	     17.98082662	     12.82812719	      0.00000000	     -0.08663645	      0.55432788	     -0.83538909	     -0.16089255	      0.73725608	     -0.88760091	     -0.14233502	      1.34779281	     -0.88760091	     -0.09901680	      1.34779281	     -0.73096546	     -0.08045061	      1.13038541	     -0.67875364	     -0.04950407	      0.85865389	     -0.62654182	     -0.61883550	      6.27066784	     -4.64618352	      0.00000000	      0.00000000	      0.00000000	      0.00000000	      0.00000000	     60.09971013	    -19.62993763	     13.23040746	     52.39121316	     50.74447487	      0.00000000	      5.00000013	     57.15198539	    -14.45427709	     10.22800803	     55.16649616	     50.52782302	      0.00000000	      5.00000013
      8.15000000	    -58.90517319	     -4.01294762	      6.34180630	     -0.25113402	      1.09330161	     -0.04350430	     88.87048848	    -10.74225271	    -12.54071044	     44.72834016	      0.78065680	      9.50232803	      3.70156927	      0.00000000	    125.58111629	     -2.57238712	      1.96098918	    113.59093141	      1.98253575	     18.07994193	     12.90541515	      0.00000000	     -0.08358943	      0.52659840	     -0.84623107	     -0.15523392	      0.70037588	     -0.89912052	     -0.13732907	      1.28037136	     -0.89912052	     -0.09553435	      1.28037136	     -0.74045219	     -0.07762114	      1.07383947	     -0.68756275	     -0.04776300	      0.81570093	     -0.63467331	     -0.59707091	      5.95698646	     -4.70648337	      0.00000000	      0.00000000	      0.00000000	      0.00000000	      0.00000000	     60.05257803	    -19.58393661	     13.16855158	     52.39401838	     50.73363897	      0.00000000	      5.00000013	     57.13301572	    -14.45949700	     10.33096769	     55.18006454	     50.53455045	      0.00000000	      5.00000013
      8.15800000	    -59.02852067	     -3.53185014	      6.27178950	     -0.25109165	      1.09413906	     -0.04378470	     88.08354453	    -10.94181725	    -12.82439972	     44.56897915	      0.77787543	      9.09682529	      5.49740228	      0.00000000	    126.64413572	     -2.86462835	      1.38928510	    113.20854562	      1.97586186	     18.12077409	     13.76125358	      0.00000000	     -0.08622275	      0.45551029	     -0.82946972	     -0.16012427	      0.60582868	     -0.88131158	     -0.14165536	      1.10752772	     -0.88131158	     -0.09854398	      1.10752772	     -0.72578601	     -0.08006645	      0.92887658	     -0.67394415	     -0.04926768	      0.70558544	     -0.62210229	     -0.61588048	      5.15282350	     -4.61326176	      0.00000000	      0.00000000	      0.00000000	      0.00000000	      0.00000000	     59.74102445	    -19.30472777	     12.34555426	     52.56517136	     50.65746756	      0.00000000	      5.00000013	     57.39463142	    -14.75393403	     11.24134780	     55.13797838	     50.64748731	      0.00000000	      5.00000013
